# xmcd
#
# Track frame offsets:
#	150
#	11705
#	25033
#	37189
#	48830
#	60918
#	74177
#	83246
#	94125
#	105884
#	120879
#
# Disc length: 1761 seconds
#
# Revision: 1
# Processed by: cddbd v1.5.2PL0 Copyright (c) Steve Scherf et al.
# Submitted via: audiograbber 1.83.01
#
DISCID=8206df0b
DTITLE=Johnny Paycheck - Song and Dance Man
DYEAR=1973
DGENRE=Country
TTITLE0=Song And Dance Man
TTITLE1=My Part Of Forever
TTITLE2=Love (Don't Let Me Down)
TTITLE3=For A Minute There
TTITLE4=Your Love Is Mine
TTITLE5=Loving Arms
TTITLE6=I Love Loving You, Baby
TTITLE7=Once She Loved Me That Much
TTITLE8=Because I Love You
TTITLE9=The Old Blind Fiddler
TTITLE10=She's There When I Come Home
EXTD=
EXTT0=
EXTT1=
EXTT2=
EXTT3=
EXTT4=
EXTT5=
EXTT6=
EXTT7=
EXTT8=
EXTT9=
EXTT10=
PLAYORDER=
